<?xml version="1.0" encoding="utf-8"?>
<!-- Generator: Adobe Illustrator 21.1.0, SVG Export Plug-In . SVG Version: 6.00 Build 0)  -->
<svg version="1.1" id="Layer_1" xmlns="http://www.w3.org/2000/svg" xmlns:xlink="http://www.w3.org/1999/xlink" x="0px" y="0px"
	 viewBox="0 0 1366 768" style="enable-background:new 0 0 1366 768;" xml:space="preserve">
<style type="text/css">
	.st0{fill:none;}
	.st1{font-family:'VistaSansMed';}
	.st2{font-size:38px;}
</style>
<g>
	<path d="M376.2,603.3c3.5-5.9,6.8-11.5,9.7-16.6c10.7,5,20.5,11,31.1,14.2c11,3.4,19.5,5.1,34.3,5.1c7.4,0,9.9,0,19.7-1.2
		c11.1-2.5,12.3-2.5,23.2-10.4c15.1-11.8,19.7-28.2,20.7-46.2c0.3-4.6,0-9.2-0.8-14.5c-23.5,27.6-52.4,38.5-87.3,30.4
		c-18.3-4.3-33.3-14.5-44.5-30c-23.3-32.3-17.7-76.2,5.7-100.8c17.4-18.3,38.9-26.6,64.3-25.5c25.2,1.1,45,12.2,61.6,32.7
		c0.8-2.9,1.5-4.4,1.5-5.8c0-6.4-0.3-12.7-0.5-19.1c-0.1-2.9,1.1-4.5,4.5-4.3c4.8,0.3,9.7,0.3,14.5,0c3.6-0.2,4.4,1.4,4.4,4.5
		c-0.1,33.7,0.1,67.4,0,101.1c0,10-1.8,20-1,29.9c1,12.2-1.6,23.5-5.9,34.5c-7.8,19.8-22.2,33.1-42.1,39.5
		c-36.7,11.9-71.8,6.1-105.2-11.9c-0.3-0.2-0.8-0.5-1.1-0.7C381,606.7,378.9,605.2,376.2,603.3z M466,429.5
		c-16.7-3.1-32.8-1.8-47.4,7.6c-15.5,9.9-24.5,23.9-26.1,42.4c-1.9,21.7,4.1,40.2,21.9,54.1c13.4,10.5,28.7,13.8,45.2,12.1
		c18.8-1.9,34.7-9.9,45.7-25.4c17.9-25.2,13.3-57.5-10.6-77.3c-5.1-4.2-9.3-5.9-14.9-9.5C472.9,431.2,470.4,430.3,466,429.5z"/>
	<path d="M37,546.9c4.9-5.8,9.5-11.3,14.4-17c1.7,1.2,3.1,2,4.3,3c22.5,20.1,48.9,29.6,79,29c14.4-0.3,27.8-4.4,37.9-14.8
		c16.9-17.5,16.5-48-13.1-60.2c-14.3-5.9-29.3-9-44.2-12.6c-18.1-4.4-35.8-9.6-50.7-21.4c-11.7-9.2-17.8-21.4-18.5-36.1
		c-0.3-6.1,0.2-12.3,1.2-18.4c3.5-20.5,16-34.8,34.5-42.5c34.7-14.5,68.6-10.7,101.2,7.6c4.6,2.6,9,5.4,13.4,8.4
		c3.1,2.1,3.7,4.5,0.9,7.7c-3.6,4.1-6.8,8.6-10.4,13.2c-7.5-4.5-14.7-9.5-22.4-13.3c-18.2-9-37.5-13-57.7-9.3
		c-14.3,2.6-26.7,8.6-33.5,22.6c-6.7,13.9-3.9,31.3,7.3,41c10.1,8.8,22.6,12,34.9,15.6c17.1,5,34.6,8.7,51.2,14.9
		c9.6,3.6,19.1,9.6,26.5,16.6c14.2,13.5,16,30.8,12.9,49.9c-3.2,19.5-14.4,32-30.2,41.6c-11.1,6.7-23.6,9.9-36.3,10.7
		c-38.3,2.4-72.2-8.9-101.1-34.4C38.1,548.4,37.8,547.9,37,546.9z"/>
	<path d="M567.2,440.9c-1.9-5.2-3.9-9.9-5.3-14.7c-0.4-1.4,0.6-4.3,1.7-4.8c31.7-13.6,64.1-18.5,96.9-4.5
		c17.1,7.3,26.7,21.5,30.3,39.6c1.5,7.6,2,15.5,2.1,23.3c0.2,31.4,0,62.7,0.2,94.1c0,4.7-1.1,6.7-6.1,6.1c-3.4-0.5-6.9-0.2-10.4,0.2
		c-4.7,0.6-6.2-1.6-6.1-5.9c0.1-4.4,0-8.8-0.1-13.1c-0.1-1.9-0.5-3.7-0.8-6.2c-5.2,4.8-9.5,9.3-14.3,13
		c-16.3,12.5-35,17.3-55.3,15.3c-16.1-1.6-30.8-7.1-42.4-19.1c-11.5-11.9-15.3-33.6-10.7-47.8c8-25,27.3-34.3,50.4-38.2
		c20.1-3.3,39.2-4,60.2,2.6c1.5,0.5,3.3,1.4,4.9,2c6.4,2.5,9.3,0.6,8.8-6.1c-1.3-16.6-5.6-31.9-21.8-40.8
		c-11.8-6.5-24.6-6.7-37.5-6.3c-6,0.2-12.2,0.5-18,2C584.9,434.1,576.4,437.7,567.2,440.9z M627.7,493.9c-2.5,0-11.1-0.4-14.3-0.1
		c-11.2,0.9-22,2.9-31.4,9.6c-16.4,11.7-18.2,36.5-3.3,50c12.3,11.1,27,13.2,42.8,11.2c30.9-4.1,51.9-29.7,48.9-60.3
		c-0.2-1.7-2.5-4.4-4.1-4.7C652,496.9,643.7,495.1,627.7,493.9z"/>
	<path d="M338.5,554.9c-5.8,5-10.3,9.1-15,12.9c-6.8,5.5-14.3,9.1-22.9,11.6c-10.2,3-20.2,4.5-30.6,3.8
		c-13.1-0.9-25.3-4.6-36.2-12.4c-20.2-14.4-25.2-39-16.5-60.2c6.5-15.9,19.2-24.4,35.1-29.5c15.2-4.8,30.8-5.3,46.5-4.1
		c11.6,0.9,23.1,3.2,34.5,5.5c4.2,0.9,5.8,0.4,5.7-3.9c-0.2-17.2-4.6-32.7-20.4-42.1c-12-7.1-25.7-8.7-39.1-6.7
		c-14.6,2.2-29,6.1-44.2,9.5c-1.4-3.3-4.5-7.8-4.8-12.5c-0.2-2.5,4-6.5,7.1-7.9c12.9-5.6,26.5-9.3,40.6-9.6
		c11.7-0.2,23.8-0.2,35.2,2.1c20.1,4.1,35.5,15.1,43,35.3c4,10.6,5.1,21.5,5.1,32.7c0,31.2-0.2,62.3,0,93.5c0,5.4-1.3,7.3-7,7.2
		c-15.5-0.2-15.5,0.1-15.5-15.2C338.9,562,338.7,559,338.5,554.9z M303.5,493.9c-9.9-1.2-12.3-1.2-16-1.2c-12.3,0-19.7,1.7-31.7,7.3
		c-20.2,9.6-23.4,33.6-12.9,49.1c5.6,8.2,14.3,13,24,15c30.2,6.3,57.5-9.8,69.8-33.2c0.9-1.7,2.5-2.5,2.6-5.9
		c0.3-6.4-0.3-12.9-0.2-19.3c0.1-3.6-1.3-5.5-4.7-6.1C320.8,497.1,317.3,496.3,303.5,493.9z"/>
</g>
<rect x="724" y="506" class="st0" width="1373.1" height="116.4"/>
<text transform="matrix(1 0 0 1 723.9999 532.7829)" class="st1 st2">Illustrated by Fiona Staples</text>
<text transform="matrix(1 0 0 1 723.9999 581.7829)" class="st1 st2">Written by Brian K. Vaughan</text>
</svg>
