<?xml version="1.0" encoding="utf-8"?>
<!-- Generator: Adobe Illustrator 21.1.0, SVG Export Plug-In . SVG Version: 6.00 Build 0)  -->
<svg version="1.1" id="Layer_1" xmlns="http://www.w3.org/2000/svg" xmlns:xlink="http://www.w3.org/1999/xlink" x="0px" y="0px"
	 viewBox="0 0 500 300" style="enable-background:new 0 0 500 300;" xml:space="preserve">
<style type="text/css">
	.st0{fill:#F6C912;stroke:#000000;stroke-width:2;stroke-miterlimit:10;}
</style>
<g>
	<g>
		<path class="st0" d="M50.4,129.1c-5.7-0.3-8.5-0.5-14.1-1c0,15.7,0,23.4,0,39.1c-10.8-1.3-16.5-2.1-27.2-3.6c0-35,0-70.2,0-105.1
			c18,0.3,27,0,45.2-0.5c31.4-0.8,49.4,8.7,49.9,33.9C104.9,121.1,75.3,132.4,50.4,129.1z M52.7,76.1c-6.4,0-9.8,0-16.2,0
			c0,13.9,0,20.8,0,35c4.9,0.3,7.2,0.3,12.1,0.5c21.6,1,28-6.7,28-17.7C76.6,81.8,69.9,75.9,52.7,76.1z"/>
		<path class="st0" d="M134.2,74.1c-9.3,0.5-16.7-5.7-16.7-13.6s7.5-14.9,16.7-15.7c9-0.8,16.5,5.1,16.5,13.4
			C150.6,66.6,143.2,73.6,134.2,74.1z M120.8,175.1c0-30.1,0-60.2,0-90.2c10.8-0.5,16.2-0.5,26.7-1c0,30.8,0,62,0,92.8
			C136.8,176.1,131.6,175.9,120.8,175.1z"/>
		<path class="st0" d="M238.8,180.5c-19-23.1-36.8-48.1-36.8-48.1s0,0-0.3,0c0,18.8,0,28,0,46.8c-10.5-0.5-15.9-0.5-26.5-1
			c0-45,0-90,0-135c10.5-1,15.9-1.5,26.5-2.8c0,26.7,0,53.7,0,80.5c0,0,0,0,0.3,0c12.3-16.5,18.8-24.7,31.1-42.2
			c12.6-0.8,19-1.3,31.6-2.1c-14.7,19.8-22.1,29.3-36.8,47.8c14.4,19.3,29,38.3,44,57.3C258.9,181,252.2,180.8,238.8,180.5z"/>
		<path class="st0" d="M341.1,184.4c-0.5-5.9-0.8-8.7-1.5-14.7c0,0,0,0-0.3,0c0,0-8.5,17.2-31.6,16.2c-21.3-0.8-31.4-14.4-31.4-32.6
			c0-23.4,19-35.7,46.3-36.2c8.2-0.3,14.9,0.8,14.9,0.8c0-3.9,0-5.9,0-9.8c0-11.8-7.7-15.9-19.8-15.4c-11.3,0.5-21.9,4.4-31.9,9.3
			c-0.5-8.7-0.8-13.1-1.3-21.9c10.8-5.9,23.4-9.8,37.8-10.5c23.9-1.5,42.2,4.9,42.2,37.8c0,26,0,52.2,0,78.1
			C355,184.9,350.4,184.6,341.1,184.4z M337.5,135.3c0,0-4.1-0.8-10.8-0.8c-10.3,0-23.4,4.1-23.4,16.7c0,9,5.7,13.6,13.6,13.9
			c10.8,0.3,20.6-10.3,20.6-24.7C337.5,138.6,337.5,137.6,337.5,135.3z"/>
		<path class="st0" d="M463.5,132.9c-17.5-1.3-28.8-13.9-44.2-14.1c-12.6-0.3-26.2,9.3-26.2,9.3c-0.5-9.5-0.5-14.4-1-23.9
			c0,0,13.1-10,27.5-9.8c18.3,0.3,29.3,12.6,44.2,13.4c12.6,0.8,26-9,26-9c0.5,10.3,0.8,15.4,1.3,26
			C491.5,124.5,478.1,134,463.5,132.9z"/>
	</g>
</g>
</svg>
