<?xml version="1.0" encoding="utf-8"?>
<!-- Generator: Adobe Illustrator 21.1.0, SVG Export Plug-In . SVG Version: 6.00 Build 0)  -->
<svg version="1.1" id="Layer_1" xmlns="http://www.w3.org/2000/svg" xmlns:xlink="http://www.w3.org/1999/xlink" x="0px" y="0px"
	 viewBox="0 0 500 300" style="enable-background:new 0 0 500 300;" xml:space="preserve">
<style type="text/css">
	.st0{fill:#F6C912;stroke:#000000;stroke-width:2;stroke-miterlimit:10;}
</style>
<g>
	<g>
		<path class="st0" d="M38,142.5c-3.9,0.2-5.9,0.2-9.8,0.4c-0.4,9.2-0.6,13.7-0.2,22.6c-7.5,0.4-11.4,0.4-18.8,0.8
			c-0.8-21,1.4-42.4,2.4-63.3c12.4-1.2,18.6-1.8,31-2.7c21.4-2,34.1,3.5,33.5,18.8C75.7,134.3,62.9,141.7,38,142.5z M41.1,110.7
			c-4.5,0.4-6.7,0.4-11.2,0.8c-0.4,8.4-0.6,12.7-1.2,21c3.3-0.2,5.1-0.2,8.4-0.4c14.9-0.6,19.6-5.1,19.8-11.8
			C57.4,113.3,52.9,110,41.1,110.7z"/>
		<path class="st0" d="M97,107.6c-6.3,0.4-11.4-3.1-11.2-8c0-4.7,5.1-9.2,11.6-9.8c6.3-0.6,11.4,3.1,11.2,8
			C108.4,102.9,103.3,107.2,97,107.6z M86.4,163.7c-0.4-17.1,0.4-27.8,1.2-49.4c7.5-0.4,11-0.6,18.4-1c-0.6,22.2-1.4,33.1-1,50.2
			C97.6,163.7,93.9,163.7,86.4,163.7z"/>
		<path class="st0" d="M168.4,164.1c-13.1-9.8-25.3-23.1-25.3-23.1s0,0-0.2,0c-0.2,10-0.2,14.7-0.2,22.7c-7.5,0-11-0.2-18.4-0.2
			c0-24.9,0.8-50,1.2-74.9c7.3-0.6,11-1,18.2-1.6c0,19.8-0.4,29.8-0.8,47.7c0,0,0,0,0.2,0c8.8-9,13.1-13.7,21.8-24.1
			c8.6-0.4,12.9-0.6,21.8-1c-10.2,11.6-15.3,17.1-25.7,27.1c0,0,12,13.9,30.2,27.8C182.1,164.3,177.6,164.3,168.4,164.1z"/>
		<path class="st0" d="M239.2,166.2c-0.4-2.4-0.6-3.7-1-6.3c0,0,0,0-0.2,0c0,0-5.9,7.3-22,6.7c-14.7-0.6-21.8-5.9-21.8-14.7
			c0-11.4,13.1-18.4,32-18.4c5.7,0,10.2,0.4,10.2,0.4c0-2.2,0-3.1,0-5.3c0-6.7-5.5-9-13.7-8.8c-7.8,0.2-15.1,2.4-22,5.1
			c-0.4-4.9-0.4-7.5-0.8-12.7c7.5-3.3,16.1-5.7,25.9-6.1c16.5-0.8,29,3.7,29,22c0.2,17.5,0.2,25.9,0.2,38.8
			C249,166.6,245.7,166.4,239.2,166.2z M236.9,143.3c0,0-2.9-0.4-7.6-0.4c-7.1,0-16.1,2.2-16.1,8.4c0,4.3,3.9,6.5,9.4,6.7
			c7.5,0.2,14.3-4.5,14.3-12C236.9,144.9,236.9,144.3,236.9,143.3z"/>
		<path class="st0" d="M312.6,172.1c-11.4-1-16.7-5.3-19.2-8.4c0,0,0,0-0.2,0c0,11.2,0,16.1-0.6,23.9c-7.5-1-11-1.4-18.4-2.2
			c1-26.5,0.2-53.1-0.2-79.8c7.1-0.2,10.4-0.4,17.5-0.8c0,3.7,0,5.5,0.2,9c0,0,0,0,0.2,0c3.9-5.9,9.8-11.6,20.8-12
			c19.8-0.8,26.9,16.1,27.5,38C340.4,161.5,332.8,173.9,312.6,172.1z M321,135.6c-0.2-11.2-5.9-17.8-14.1-17.7
			c-8.4,0.2-14.1,8-13.9,16.3c0,4.3,0.2,6.3,0.2,10.4c0.2,9.2,6.7,15.1,13.9,15.3c10,0.6,14.3-6.1,14.1-15.9
			C321,140.9,321,139.2,321,135.6z"/>
		<path class="st0" d="M363.9,93.1c-6.5,0.4-11.6-5.1-11.8-12.4c-0.2-7.1,4.9-13.3,11.4-13.9c6.3-0.6,11.4,4.9,11.4,12.2
			C375.1,86.6,370.2,92.7,363.9,93.1z M356.5,174.3c0.2-23.9-0.8-47.9-1.6-71.8c7.5-0.4,11-0.4,18.4-0.8c1,24.7,2,49.4,1.8,74.3
			C367.7,175.3,363.9,174.9,356.5,174.3z"/>
		<path class="st0" d="M404.9,180.9c-6.9-0.8-12.2-6.7-12.4-13.1c0-6.7,5.5-12.6,12.4-12.2c6.9,0.4,12.7,6.9,12.7,14.1
			C417.7,176.8,411.8,181.7,404.9,180.9z"/>
		<path class="st0" d="M441.8,185.5c-6.9-1-12.2-7.5-12.2-14.7c0-7.5,5.5-13.5,12.4-13.3c6.9,0.4,12.7,7.5,12.7,15.5
			C454.7,180.9,448.9,186.4,441.8,185.5z"/>
		<path class="st0" d="M478.9,190.8c-6.9-1-12.2-8.4-12-16.5c0-8.2,5.5-14.9,12.4-14.5c7.1,0.4,12.9,8,12.7,17.1
			C492,185.5,485.9,191.7,478.9,190.8z"/>
	</g>
</g>
</svg>
