<?xml version="1.0" encoding="utf-8"?>
<!-- Generator: Adobe Illustrator 21.1.0, SVG Export Plug-In . SVG Version: 6.00 Build 0)  -->
<svg version="1.1" id="Layer_1" xmlns="http://www.w3.org/2000/svg" xmlns:xlink="http://www.w3.org/1999/xlink" x="0px" y="0px"
	 viewBox="0 0 500 300" style="enable-background:new 0 0 500 300;" xml:space="preserve">
<style type="text/css">
	.st0{fill:#FFFFFF;}
	.st1{fill:#F6C912;}
</style>
<g>
	<path class="st0" d="M64,88.6c-37.8-6.7-44.4-11-51.2,5.7S-4,156.8,7,164.9s33.5,15.3,42,8.9c8.5-6.3,26.3,0.7,36-1.8
		c22.5-5.9,37.5,2.2,54,1.8c16.5-0.3,33.5,16.7,54.5,0c7.5-5.9,9.5-12.5,17-8.9s25.8,18.1,39.5,16.6s19-19.5,32.5-14.9
		s19,19.5,40.5,16.4c0,0,11.2-2.5,20.1-11c0,0,3.9-7.8,5.4-5.4s13.5,17.9,22,16.4s12.5-6,18-4.5s13.5,8.7,20.5,4.6
		c7-4.1,20.9,5.6,27.4,1.2c6.6-4.3,20.1,1.7,30.1-2.3s22,4,27-0.5s8.6-23.8-1-31.5s-8.5-22.5-7-31.5s15.3-33.8,8.5-40
		c-6.5-5.9-125,8.4-177,1.5c0,0-42.5-0.2-67,4.8s-30.5-3.8-62,1.5s-37.6-13.5-60.3-4.3C101.5,92.6,74,90.4,64,88.6z"/>
	<g>
		<path class="st1" d="M32,164.9c-23-0.2-19.4-18.9-18.3-35.1c1.3-17.7,1.9-35.2,24.7-35.5c6.6-0.1,12.8,0.9,18.1,2.6
			c1.3,4.6,1.7,6.9,2.4,11.4c-5-1.9-10.8-3-15.6-3c-11.1-0.1-15.5,10.2-14.7,19.9c0,3.6-0.1,5.4-0.6,9c-1.9,14.4,2.1,19.5,12.4,19.8
			c5.8,0.2,11.7-1.7,17.3-4.2c-1.1,4.6-1.8,6.9-3.4,11.5C47.8,163.9,40.1,165,32,164.9z"/>
		<path class="st1" d="M107.5,166.1c2.8-10.5,5.3-20.7,6-31.5c-10.8-0.1-16.2-0.1-27-0.1c-0.9,10.7-3.9,20.5-7.3,30.6
			c-6.1-0.2-9.1-0.3-15.2-0.6c9-24.6,10.2-44.6,3.4-69.9c5.9-0.2,8.9-0.3,14.9-0.5c2.7,8.8,4.4,18.9,4.5,28.1
			c10.8-0.1,16.2-0.1,27-0.2c-0.1-9.5-1.4-19.7-3.7-28.9c5.9-0.2,8.9-0.3,14.9-0.5c4.2,25.8,3.4,48.5-2.3,74
			C116.6,166.4,113.6,166.3,107.5,166.1z"/>
		<path class="st1" d="M167.2,169.8c-17-0.4-26.5-11.7-23.6-28.7c1.4-16.3,0.8-32.9-2-49c5.9-0.2,8.9-0.3,14.9-0.5
			c2.3,16.4,2.8,33.1,1.6,49.6c-0.7,10,2.8,15.7,11.5,15.9c9,0.2,13.7-5.3,14.2-15.7c0.8-16.9,0.5-33.8-1-50.7
			c5.9-0.2,8.9-0.3,14.9-0.4c0.7,17.1,1,34.1,0.6,51.2C198.1,160.5,185.1,170.2,167.2,169.8z"/>
		<path class="st1" d="M241.5,172c-18.2-0.5-28-12-27.2-30.2c0.3-17.3,0.2-34.6-0.1-51.8c5.9-0.2,8.9-0.2,14.9-0.4
			c-0.1,17.5-0.2,34.9-0.3,52.4c-0.1,10.6,4.4,16.6,13.1,16.8c9,0.2,12.8-5.6,12.6-16.5c-0.2-17.8,0.1-35.5,1-53.3
			c5.9-0.1,8.9-0.2,14.9-0.4c-1.3,18-1.7,35.7-1.4,53.7C270.1,160.8,260.5,172.5,241.5,172z"/>
		<path class="st1" d="M315.9,173.8c-18-1-30.5-12.6-30.9-31.5c-0.5-18.3,0.1-36.1,1.9-54.2c5.9-0.1,8.9-0.2,14.9-0.3
			c-2.3,18.4-3,36.2-2.3,54.7c0.6,11.1,6.1,17.3,14.7,17.4c8.9,0.1,11.8-5.9,10.9-17.3c-0.9-18.9,0-36.7,3.1-55.4
			c5.9-0.1,8.9-0.2,14.9-0.3c-3.6,18.9-4.7,36.6-3.6,55.8C341.7,159.7,334.8,174.8,315.9,173.8z"/>
		<path class="st1" d="M368.4,174.7c-5.3-0.1-10.5-4.4-11.9-10.2s1.5-10,6.6-10c5.1,0.1,9.6,4.4,11.2,10.2
			C375.9,170.7,373.6,174.8,368.4,174.7z M367.9,141.8c-5.4,0-8,0-13.4-0.1c-1.3-19-0.3-36.4,3.5-55.1c6.1-0.1,9.1-0.2,15.2-0.3
			C368.5,105.2,366.9,122.4,367.9,141.8z"/>
		<path class="st1" d="M397.6,175.2c-5.3-0.1-10.8-4.5-12.6-10.3c-1.8-5.9,1-10.2,6.1-10.1c5.1,0,9.7,4.4,11.7,10.3
			C404.9,171.2,402.8,175.3,397.6,175.2z M395.6,142c-5.4,0-8,0-13.4-0.1c-1.7-19.5-0.3-36.7,4.4-55.8c6.1-0.1,9.1-0.1,15.2-0.2
			C396.1,105,394.2,122,395.6,142z"/>
		<path class="st1" d="M426.9,175.7c-5.3-0.1-11.1-4.5-13.2-10.4s0.5-10.3,5.6-10.2c5.1,0,9.9,4.5,12.2,10.4
			C433.8,171.6,432.1,175.8,426.9,175.7z M423.2,142.1c-5.4,0-8,0-13.4-0.1c-2-20-0.4-36.9,5.3-56.3c6.1-0.1,9.1-0.1,15.2-0.2
			C423.7,104.9,421.5,121.6,423.2,142.1z"/>
		<path class="st1" d="M456.1,176.1c-5.3-0.1-11.4-4.5-13.9-10.5c-2.4-6,0-10.4,5-10.3c5.1,0,10.1,4.5,12.7,10.5
			C462.7,171.9,461.3,176.1,456.1,176.1z M450.8,142.2c-5.3,0-8,0-13.4,0c-2.4-20.5-0.4-37.2,6.3-56.8c6.1-0.1,9.1-0.1,15.2-0.2
			C451.6,103.5,447.2,122.3,450.8,142.2z"/>
		<path class="st1" d="M485.4,176.4c-5.3-0.1-11.8-4.5-14.6-10.6c-2.8-6-0.6-10.4,4.5-10.4s10.2,4.5,13.3,10.6
			C491.7,172.2,490.6,176.5,485.4,176.4z M478.4,142.3c-5.3,0-8,0-13.4,0c-4.1-20.2-0.2-38.5,7.3-57.3c6.1-0.1,9.1-0.1,15.2-0.2
			C479.4,103.1,474.2,122.1,478.4,142.3z"/>
	</g>
</g>
</svg>
